<?xml version="1.0" standalone="no"?>
<!DOCTYPE svg PUBLIC "-//W3C//DTD SVG 20010904//EN"
 "http://www.w3.org/TR/2001/REC-SVG-20010904/DTD/svg10.dtd">
<svg version="1.0" xmlns="http://www.w3.org/2000/svg"
 width="273.000000pt" height="282.000000pt" viewBox="0 0 273.000000 282.000000"
 preserveAspectRatio="xMidYMid meet">
<metadata>
Created by potrace 1.10, written by Peter Selinger 2001-2011
</metadata>
<g transform="translate(0.000000,282.000000) scale(0.100000,-0.100000)"
fill="#000000" stroke="none">
<path d="M1412 2056 c-17 -7 -37 -17 -44 -24 -7 -7 -20 -12 -29 -12 -10 0 -19
-4 -21 -8 -3 -9 -11 -13 -105 -62 -26 -14 -50 -28 -53 -32 -3 -4 -17 -12 -30
-18 -14 -5 -38 -19 -55 -30 -16 -11 -39 -24 -50 -30 -42 -23 -67 -38 -78 -49
-6 -6 -19 -11 -29 -11 -17 0 -18 -24 -18 -455 l0 -455 198 0 198 0 13 133 c7
72 16 159 20 192 l6 60 125 0 125 0 7 -60 c3 -33 12 -120 19 -192 l13 -133
196 0 197 0 7 258 c3 141 11 313 17 382 6 69 9 151 7 184 -3 55 -5 60 -35 76
-18 9 -47 28 -65 42 -18 13 -40 28 -48 31 -8 4 -28 16 -45 27 -16 11 -39 24
-50 30 -11 6 -33 19 -50 30 -16 11 -34 22 -40 24 -5 2 -17 7 -25 10 -8 3 -28
15 -45 26 -16 11 -37 22 -45 25 -8 3 -28 13 -43 21 -16 7 -37 14 -47 14 -10 0
-22 5 -25 10 -8 12 -30 11 -73 -4z"/>
</g>
</svg>
