<?xml version="1.0" standalone="no"?>
<!DOCTYPE svg PUBLIC "-//W3C//DTD SVG 20010904//EN"
 "http://www.w3.org/TR/2001/REC-SVG-20010904/DTD/svg10.dtd">
<svg version="1.0" xmlns="http://www.w3.org/2000/svg"
 width="134.000000pt" height="146.000000pt" viewBox="0 0 134.000000 146.000000"
 preserveAspectRatio="xMidYMid meet">
<metadata>
Created by potrace 1.10, written by Peter Selinger 2001-2011
</metadata>
<g transform="translate(0.000000,146.000000) scale(0.050000,-0.050000)"
fill="#000000" stroke="none">
<path d="M1083 2639 c-249 -135 -486 -277 -646 -385 l-153 -104 -15 -290 c-20
-401 -2 -1135 29 -1166 17 -17 131 -24 382 -24 463 0 428 -33 436 413 l7 341
137 -7 c176 -10 162 19 182 -379 10 -190 23 -350 30 -356 25 -26 765 -13 792
14 29 29 51 1142 26 1340 -17 139 -248 306 -804 583 -243 121 -221 120 -403
20z m372 -110 c342 -185 705 -411 727 -454 24 -43 16 -1284 -8 -1308 -17 -16
-609 -18 -626 -2 -9 9 -21 170 -28 358 -14 409 -6 397 -251 397 -236 0 -236 1
-252 -417 -7 -183 -14 -335 -15 -338 -1 -3 -141 -5 -312 -5 l-310 0 0 676 0
676 355 208 c511 298 513 300 533 300 10 0 95 -41 187 -91z m-1120 -1374 c-4
-135 -6 -24 -6 245 0 270 2 380 6 245 3 -135 3 -355 0 -490z"/>
</g>
</svg>
