<svg xmlns="http://www.w3.org/2000/svg" xmlns:xlink="http://www.w3.org/1999/xlink" version="1.1" width="1000" height="1000" viewBox="0 0 1000 1000" xml:space="preserve">
<desc>Created with Fabric.js 3.5.0</desc>
<defs>
</defs>
<rect x="0" y="0" width="100%" height="100%" fill="#ffffff"/>
<g transform="matrix(0.8352 0 0 -0.8352 500.3579 500.3733)" id="838479">
<path style="stroke: none; stroke-width: 1; stroke-dasharray: none; stroke-linecap: butt; stroke-dashoffset: 0; stroke-linejoin: miter; stroke-miterlimit: 4; is-custom-font: none; font-file-url: none; fill: rgb(0,0,0); fill-rule: nonzero; opacity: 1;" vector-effect="non-scaling-stroke" transform=" translate(-1474.3085, -1469.106)" d="M 1412 2056 c -17 -7 -37 -17 -44 -24 c -7 -7 -20 -12 -29 -12 c -10 0 -19 -4 -21 -8 c -3 -9 -11 -13 -105 -62 c -26 -14 -50 -28 -53 -32 c -3 -4 -17 -12 -30 -18 c -14 -5 -38 -19 -55 -30 c -16 -11 -39 -24 -50 -30 c -42 -23 -67 -38 -78 -49 c -6 -6 -19 -11 -29 -11 c -17 0 -18 -24 -18 -455 l 0 -455 l 198 0 l 198 0 l 13 133 c 7 72 16 159 20 192 l 6 60 l 125 0 l 125 0 l 7 -60 c 3 -33 12 -120 19 -192 l 13 -133 l 196 0 l 197 0 l 7 258 c 3 141 11 313 17 382 c 6 69 9 151 7 184 c -3 55 -5 60 -35 76 c -18 9 -47 28 -65 42 c -18 13 -40 28 -48 31 c -8 4 -28 16 -45 27 c -16 11 -39 24 -50 30 c -11 6 -33 19 -50 30 c -16 11 -34 22 -40 24 c -5 2 -17 7 -25 10 c -8 3 -28 15 -45 26 c -16 11 -37 22 -45 25 c -8 3 -28 13 -43 21 c -16 7 -37 14 -47 14 c -10 0 -22 5 -25 10 c -8 12 -30 11 -73 -4 z" stroke-linecap="round"/>
</g>
</svg>