<?xml version="1.0" encoding="UTF-8"?>
<svg fill="none" viewBox="0 0 58 55" xmlns="http://www.w3.org/2000/svg">
<path d="m0.30078 24.009c-0.32445 2.1324-0.30536 4.3101 0.047713 6.4606 0.53439 3.2938 2.6053 6.1703 5.6399 7.849 8.3116 4.6005 27.998 15.498 27.998 15.498 0.8684 0.4719 1.9281 0.4719 2.7965 0 0.8588-0.4718 1.3934-1.343 1.3934-2.2867v-48.882c0-0.9437-0.5346-1.8239-1.3934-2.2958-0.8684-0.47185-1.9281-0.47188-2.7965 0.009039 0 0-19.686 10.889-27.998 15.489-3.0346 1.6787-5.1055 4.5642-5.6399 7.8581l-0.047713 0.2995zm42.456-16.605c0-0.09981 0.0477-0.19969 0.1432-0.25414 0.0859-0.06352 0.1998-0.07263 0.2952-0.03633 8.5311 3.0126 14.6 10.825 14.6 19.972 0 9.1557-6.0691 16.959-14.6 19.981-0.0954 0.0363-0.2093 0.0182-0.2952-0.0363-0.0859-0.0635-0.1432-0.1543-0.1432-0.2541v-4.9361c0-0.2087 0.1239-0.4084 0.3243-0.4991 5.4298-2.6587 9.1513-8.0488 9.1513-14.255s-3.7215-11.588-9.1513-14.246c-0.2004-0.0999-0.3243-0.2904-0.3243-0.5082v-4.927zm-36.911 17.141v-0.0181c0.27674-1.715 1.365-3.2212 2.9396-4.0923l23.818-13.185v38.973c0 0.1452-0.0759 0.2813-0.2095 0.3539s-0.2862 0.0726-0.4198 0c-6.3745-3.5298-17.473-9.6638-23.189-12.831-1.5745-0.8711-2.6628-2.3774-2.9396-4.0924-0.27674-1.6968-0.27674-3.4299 0-5.1268v0.0181zm36.911-6.9143c0-0.127 0.0764-0.2451 0.1909-0.2995 0.124-0.0545 0.267-0.0454 0.372 0.0363 3.0441 2.2504 5.0099 5.771 5.0099 9.7182 0 3.9563-1.9658 7.468-5.0099 9.7274-0.105 0.0726-0.248 0.0816-0.372 0.0272-0.1145-0.0545-0.1909-0.1724-0.1909-0.2903v-18.919zm-42.456 6.3699 0.038767-0.2723c-0.009543 0.0908-0.029224 0.1815-0.038767 0.2723l-0.11406 0.6988 0.11406-0.6896v-0.0092z" clip-rule="evenodd" fill="#000" fill-rule="evenodd"/>
</svg>
