<?xml version="1.0" standalone="no"?>
<!DOCTYPE svg PUBLIC "-//W3C//DTD SVG 20010904//EN"
 "http://www.w3.org/TR/2001/REC-SVG-20010904/DTD/svg10.dtd">
<svg version="1.0" xmlns="http://www.w3.org/2000/svg"
 width="114.000000pt" height="135.000000pt" viewBox="0 0 114.000000 135.000000"
 preserveAspectRatio="xMidYMid meet">
<metadata>
Created by potrace 1.10, written by Peter Selinger 2001-2011
</metadata>
<g transform="translate(0.000000,135.000000) scale(0.100000,-0.100000)"
fill="#000000" stroke="none">
<path d="M481 1188 c-130 -20 -267 -122 -329 -247 -30 -60 -32 -71 -32 -171 0
-103 2 -110 35 -177 44 -88 121 -163 212 -206 55 -25 83 -32 154 -35 93 -5
148 8 243 55 l48 25 37 -34 c20 -18 68 -64 107 -101 75 -72 95 -79 121 -41 13
20 8 28 -90 135 l-104 113 38 80 c38 77 39 83 39 185 0 96 -3 112 -29 166 -82
173 -272 279 -450 253z m203 -127 c82 -40 150 -114 171 -184 24 -81 20 -183
-10 -244 -29 -58 -102 -130 -166 -165 -37 -20 -58 -23 -139 -23 -83 1 -102 4
-145 27 -54 28 -132 104 -161 159 -15 27 -19 56 -19 139 0 117 8 140 73 212
107 119 256 148 396 79z"/>
<path d="M429 952 c-184 -118 -106 -395 112 -395 67 0 127 30 173 86 29 37 31
43 31 127 0 83 -2 90 -31 126 -42 53 -96 78 -174 82 -58 3 -70 0 -111 -26z"/>
</g>
</svg>
