 <svg  version="1.0" xmlns="http://www.w3.org/2000/svg"  width="153.000000pt" height="156.000000pt" viewBox="0 0 153.000000 156.000000"  preserveAspectRatio="xMidYMid meet">  <g transform="translate(0.000000,156.000000) scale(0.100000,-0.100000)" fill="#548fed" stroke="none"> <path d="M704 1478 c-16 -11 -60 -52 -99 -89 l-70 -68 -127 -3 c-173 -4 -172 -3 -176 -175 l-4 -127 -84 -89 c-123 -131 -123 -145 0 -274 l84 -89 4 -127 c4 -172 3 -171 175 -175 l127 -4 89 -84 c131 -123 145 -123 274 0 l89 84 127 4 c172 4 171 3 175 175 l4 127 84 89 c123 129 123 143 0 274 l-84 89 -4 127 c-4 172 -3 171 -176 175 l-127 3 -55 53 c-143 136 -168 148 -226 104z m384 -466 c33 -42 20 -59 -218 -297 l-230 -230 -110 110 c-116 116 -127 138 -90 175 34 34 64 25 135 -42 l66 -62 182 181 c100 99 189 183 197 186 21 7 53 -2 68 -21z"/> </g> </svg> 